HIERARCHY
ROOT root
{
	OFFSET	0	13.1	24.9
	CHANNELS 6  Xposition Yposition Zposition Xrotation Yrotation Zrotation
	JOINT spine_1
	{
		OFFSET	0	9.99999	0
		CHANNELS 3  Xrotation Yrotation Zrotation
		JOINT spine_2
		{
			OFFSET	0	112	-10
			CHANNELS 3  Xrotation Yrotation Zrotation
			JOINT spine_3
			{
				OFFSET	0	206.5	19.3
				CHANNELS 3  Xrotation Yrotation Zrotation
				JOINT spine_4
				{
					OFFSET	0	110.4	14.6
					CHANNELS 3  Xrotation Yrotation Zrotation
					JOINT neck_1
					{
						OFFSET	0	71.8	-50.3
						CHANNELS 3  Xrotation Yrotation Zrotation
						JOINT neck_2
						{
							OFFSET	0	86.2	-25.8
							CHANNELS 3  Xrotation Yrotation Zrotation
							JOINT head_ee
							{
								OFFSET	0	179.8	-8.7
								CHANNELS 3  Xrotation Yrotation Zrotation
								End Site
								{
									OFFSET	1	0	0
								}
							}
						}
					}
					JOINT left_clavicle
					{
						OFFSET	-43.2	22.4	-70.8
						CHANNELS 3  Xrotation Yrotation Zrotation
						JOINT left_shoulder
						{
							OFFSET	-93.9	-5.79999	48.7
							CHANNELS 3  Xrotation Yrotation Zrotation
							JOINT left_elbow
							{
								OFFSET	-291.4	-30.8	15.2
								CHANNELS 3  Xrotation Yrotation Zrotation
								JOINT left_lowarm_twist
								{
									OFFSET	-110.7	-3.89999	13.6
									CHANNELS 3  Xrotation Yrotation Zrotation
									JOINT left_hand
									{
										OFFSET	-110.7	-3.89999	13.6
										CHANNELS 3  Xrotation Yrotation Zrotation
										JOINT left_ee
										{
											OFFSET	-80.8	-5.10001	12.1
											CHANNELS 3  Xrotation Yrotation Zrotation
											End Site
											{
												OFFSET	1	0	0
											}
										}
									}
								}
							}
						}
					}
					JOINT right_clavicle
					{
						OFFSET	43.2	22.4	-70.8
						CHANNELS 3  Xrotation Yrotation Zrotation
						JOINT right_shoulder
						{
							OFFSET	93.9	-5.79999	48.7
							CHANNELS 3  Xrotation Yrotation Zrotation
							JOINT right_elbow
							{
								OFFSET	291.4	-30.8	15.2
								CHANNELS 3  Xrotation Yrotation Zrotation
								JOINT right_lowarm_twist
								{
									OFFSET	110.7	-3.89999	13.6
									CHANNELS 3  Xrotation Yrotation Zrotation
									JOINT right_hand
									{
										OFFSET	110.7	-3.89999	13.6
										CHANNELS 3  Xrotation Yrotation Zrotation
										JOINT right_ee
										{
											OFFSET	80.8	-5.10001	12.1
											CHANNELS 3  Xrotation Yrotation Zrotation
											End Site
											{
												OFFSET	1	0	0
											}
										}
									}
								}
							}
						}
					}
				}
			}
		}
	}
	JOINT left_hip
	{
		OFFSET	-82.8	-127.5	0.300001
		CHANNELS 3  Xrotation Yrotation Zrotation
		JOINT left_knee
		{
			OFFSET	-28.2	-396.7	2.2
			CHANNELS 3  Xrotation Yrotation Zrotation
			JOINT left_ankle
			{
				OFFSET	-11.7	-411.3	35.4
				CHANNELS 3  Xrotation Yrotation Zrotation
				JOINT left_toes
				{
					OFFSET	0	-60	-88.6
					CHANNELS 3  Xrotation Yrotation Zrotation
					JOINT left_foot_ee
					{
						OFFSET	-22.5	-16.5	-42.2
						CHANNELS 3  Xrotation Yrotation Zrotation
						End Site
						{
							OFFSET	1	0	0
						}
					}
				}
			}
		}
	}
	JOINT right_hip
	{
		OFFSET	82.8	-127.5	0.300001
		CHANNELS 3  Xrotation Yrotation Zrotation
		JOINT right_knee
		{
			OFFSET	28.2	-396.7	2.2
			CHANNELS 3  Xrotation Yrotation Zrotation
			JOINT right_ankle
			{
				OFFSET	11.7	-411.3	35.4
				CHANNELS 3  Xrotation Yrotation Zrotation
				JOINT right_toes
				{
					OFFSET	0	-60	-88.6
					CHANNELS 3  Xrotation Yrotation Zrotation
					JOINT right_foot_ee
					{
						OFFSET	22.5	-16.5	-42.2
						CHANNELS 3  Xrotation Yrotation Zrotation
						End Site
						{
							OFFSET	1	0	0
						}
					}
				}
			}
		}
	}
}
MOTION
Frames: 14
Frame Time: 0.02
3574.42 741.953 -1474.73 167.001431017 42.9941042478 -160.073241502 -6.18815 -0.441457 -3.52732 -6.18125 -0.216254 -3.54823 -6.1535 0.908926 -3.43679 -6.1698 0.355101 -3.53705 -4.77022 1.85555 5.69605 -4.67757 -0.899419 6.13415 -0.0 0.0 -0.0 7.72585 3.30585 14.9722 0.736104 -30.1017 65.4199 0.642591 -17.6574 0.0998092 -63.5302 -5.72476 5.19745 0.825638 21.1767 13.4723 -0.0 0.0 -0.0 3.46191 5.61286 -6.31191 9.23415 20.7327 -58.807 1.63246 38.9585 -0.577454 34.4573 0.0927837 4.33509 1.7324 7.81067 -8.41019 0.0 0.0 0.0 -16.5166 -20.5371 -13.3109 3.71551 -0.17074 -0.544422 15.7797 30.1281 -2.37741 -7.83697 0.0 0.0 -0.0 0.0 -0.0 5.84279 21.2736 -19.7713 -17.5654 -0.316674 -2.66643 20.8691 -27.8376 3.03478 -17.8936 0.0 0.0 0.0 0.0 0.0 
3505.42301335 734.915 -1456.2393975 165.725863782 55.8926741745 -162.024631117 -5.52653 -1.06722 -3.14178 -5.52145 -0.865243 -3.20324 -5.46015 0.143062 -3.31484 -5.47527 -0.381959 -3.29589 -5.3304 2.07978 7.75556 -5.15643 -1.97627 8.25335 -0.0 0.0 -0.0 7.09408 4.16601 13.7346 3.73766 -29.4583 61.6764 2.14088 -46.6767 0.923794 -61.9121 -5.52147 5.15672 -0.576551 4.00222 -2.12419 -0.0 0.0 -0.0 3.77422 14.0573 -6.31557 -8.77543 20.7003 -58.2437 0.857832 23.0226 -0.174707 39.2946 0.313083 4.91282 0.83396 -3.44951 -6.97423 0.0 0.0 0.0 0.834065 -22.9437 -4.93766 -31.5025 -0.0164102 4.77408 20.592 24.3659 -2.93611 -5.94931 0.0 0.0 -0.0 0.0 -0.0 -8.27726 12.0472 -12.7304 -5.89375 -0.197405 -0.882578 35.2207 -25.9553 4.71351 -30.5957 0.0 0.0 0.0 0.0 0.0 
3505.23288139 734.915 -1456.96404473 165.502982382 56.4747549165 -161.756369997 -5.52653 -1.06722 -3.14178 -5.52145 -0.865243 -3.20324 -5.46015 0.143062 -3.31484 -5.47527 -0.381959 -3.29589 -5.3304 2.07978 7.75556 -5.15643 -1.97627 8.25335 -0.0 0.0 -0.0 7.09408 4.16601 13.7346 3.73766 -29.4583 61.6764 2.14088 -46.6767 0.923794 -61.9121 -5.52147 5.15672 -0.576551 4.00222 -2.12419 -0.0 0.0 -0.0 3.77422 14.0573 -6.31557 -8.77543 20.7003 -58.2437 0.857832 23.0226 -0.174707 39.2946 0.313083 4.91282 0.83396 -3.44951 -6.97423 0.0 0.0 0.0 0.834065 -22.9437 -4.93766 -31.5025 -0.0164102 4.77408 20.592 24.3659 -2.93611 -5.94931 0.0 0.0 -0.0 0.0 -0.0 -8.27726 12.0472 -12.7304 -5.89375 -0.197405 -0.882578 35.2207 -25.9553 4.71351 -30.5957 0.0 0.0 0.0 0.0 0.0 
3504.90852326 734.915 -1458.27882531 165.078255949 57.525391953 -161.249964474 -5.52653 -1.06722 -3.14178 -5.52145 -0.865243 -3.20324 -5.46015 0.143062 -3.31484 -5.47527 -0.381959 -3.29589 -5.3304 2.07978 7.75556 -5.15643 -1.97627 8.25335 -0.0 0.0 -0.0 7.09408 4.16601 13.7346 3.73766 -29.4583 61.6764 2.14088 -46.6767 0.923794 -61.9121 -5.52147 5.15672 -0.576551 4.00222 -2.12419 -0.0 0.0 -0.0 3.77422 14.0573 -6.31557 -8.77543 20.7003 -58.2437 0.857832 23.0226 -0.174707 39.2946 0.313083 4.91282 0.83396 -3.44951 -6.97423 0.0 0.0 0.0 0.834065 -22.9437 -4.93766 -31.5025 -0.0164102 4.77408 20.592 24.3659 -2.93611 -5.94931 0.0 0.0 -0.0 0.0 -0.0 -8.27726 12.0472 -12.7304 -5.89375 -0.197405 -0.882578 35.2207 -25.9553 4.71351 -30.5957 0.0 0.0 0.0 0.0 0.0 
3504.65805541 734.915 -1459.37559882 164.702381984 58.3965871397 -160.806566697 -5.52653 -1.06722 -3.14178 -5.52145 -0.865243 -3.20324 -5.46015 0.143062 -3.31484 -5.47527 -0.381959 -3.29589 -5.3304 2.07978 7.75556 -5.15643 -1.97627 8.25335 -0.0 0.0 -0.0 7.09408 4.16601 13.7346 3.73766 -29.4583 61.6764 2.14088 -46.6767 0.923794 -61.9121 -5.52147 5.15672 -0.576551 4.00222 -2.12419 -0.0 0.0 -0.0 3.77422 14.0573 -6.31557 -8.77543 20.7003 -58.2437 0.857832 23.0226 -0.174707 39.2946 0.313083 4.91282 0.83396 -3.44951 -6.97423 0.0 0.0 0.0 0.834065 -22.9437 -4.93766 -31.5025 -0.0164102 4.77408 20.592 24.3659 -2.93611 -5.94931 0.0 0.0 -0.0 0.0 -0.0 -8.27726 12.0472 -12.7304 -5.89375 -0.197405 -0.882578 35.2207 -25.9553 4.71351 -30.5957 0.0 0.0 0.0 0.0 0.0 
3504.32027559 734.915 -1460.99991676 164.106025789 59.6783899563 -160.111156675 -5.52653 -1.06722 -3.14178 -5.52145 -0.865243 -3.20324 -5.46015 0.143062 -3.31484 -5.47527 -0.381959 -3.29589 -5.3304 2.07978 7.75556 -5.15643 -1.97627 8.25335 -0.0 0.0 -0.0 7.09408 4.16601 13.7346 3.73766 -29.4583 61.6764 2.14088 -46.6767 0.923794 -61.9121 -5.52147 5.15672 -0.576551 4.00222 -2.12419 -0.0 0.0 -0.0 3.77422 14.0573 -6.31557 -8.77543 20.7003 -58.2437 0.857832 23.0226 -0.174707 39.2946 0.313083 4.91282 0.83396 -3.44951 -6.97423 0.0 0.0 0.0 0.834065 -22.9437 -4.93766 -31.5025 -0.0164102 4.77408 20.592 24.3659 -2.93611 -5.94931 0.0 0.0 -0.0 0.0 -0.0 -8.27726 12.0472 -12.7304 -5.89375 -0.197405 -0.882578 35.2207 -25.9553 4.71351 -30.5957 0.0 0.0 0.0 0.0 0.0 
3504.01421281 734.915 -1462.66717783 163.438989318 60.9839441945 -159.343530888 -5.52653 -1.06722 -3.14178 -5.52145 -0.865243 -3.20324 -5.46015 0.143062 -3.31484 -5.47527 -0.381959 -3.29589 -5.3304 2.07978 7.75556 -5.15643 -1.97627 8.25335 -0.0 0.0 -0.0 7.09408 4.16601 13.7346 3.73766 -29.4583 61.6764 2.14088 -46.6767 0.923794 -61.9121 -5.52147 5.15672 -0.576551 4.00222 -2.12419 -0.0 0.0 -0.0 3.77422 14.0573 -6.31557 -8.77543 20.7003 -58.2437 0.857832 23.0226 -0.174707 39.2946 0.313083 4.91282 0.83396 -3.44951 -6.97423 0.0 0.0 0.0 0.834065 -22.9437 -4.93766 -31.5025 -0.0164102 4.77408 20.592 24.3659 -2.93611 -5.94931 0.0 0.0 -0.0 0.0 -0.0 -8.27726 12.0472 -12.7304 -5.89375 -0.197405 -0.882578 35.2207 -25.9553 4.71351 -30.5957 0.0 0.0 0.0 0.0 0.0 
3503.63273185 734.915 -1465.15664028 162.322822876 62.9147725651 -158.07899021 -5.52653 -1.06722 -3.14178 -5.52145 -0.865243 -3.20324 -5.46015 0.143062 -3.31484 -5.47527 -0.381959 -3.29589 -5.3304 2.07978 7.75556 -5.15643 -1.97627 8.25335 -0.0 0.0 -0.0 7.09408 4.16601 13.7346 3.73766 -29.4583 61.6764 2.14088 -46.6767 0.923794 -61.9121 -5.52147 5.15672 -0.576551 4.00222 -2.12419 -0.0 0.0 -0.0 3.77422 14.0573 -6.31557 -8.77543 20.7003 -58.2437 0.857832 23.0226 -0.174707 39.2946 0.313083 4.91282 0.83396 -3.44951 -6.97423 0.0 0.0 0.0 0.834065 -22.9437 -4.93766 -31.5025 -0.0164102 4.77408 20.592 24.3659 -2.93611 -5.94931 0.0 0.0 -0.0 0.0 -0.0 -8.27726 12.0472 -12.7304 -5.89375 -0.197405 -0.882578 35.2207 -25.9553 4.71351 -30.5957 0.0 0.0 0.0 0.0 0.0 
3503.29858415 734.915 -1468.07937926 160.789532684 65.1535768723 -156.373893963 -5.52653 -1.06722 -3.14178 -5.52145 -0.865243 -3.20324 -5.46015 0.143062 -3.31484 -5.47527 -0.381959 -3.29589 -5.3304 2.07978 7.75556 -5.15643 -1.97627 8.25335 -0.0 0.0 -0.0 7.09408 4.16601 13.7346 3.73766 -29.4583 61.6764 2.14088 -46.6767 0.923794 -61.9121 -5.52147 5.15672 -0.576551 4.00222 -2.12419 -0.0 0.0 -0.0 3.77422 14.0573 -6.31557 -8.77543 20.7003 -58.2437 0.857832 23.0226 -0.174707 39.2946 0.313083 4.91282 0.83396 -3.44951 -6.97423 0.0 0.0 0.0 0.834065 -22.9437 -4.93766 -31.5025 -0.0164102 4.77408 20.592 24.3659 -2.93611 -5.94931 0.0 0.0 -0.0 0.0 -0.0 -8.27726 12.0472 -12.7304 -5.89375 -0.197405 -0.882578 35.2207 -25.9553 4.71351 -30.5957 0.0 0.0 0.0 0.0 0.0 
3503.04393539 734.915 -1471.91149894 158.301001567 68.0410021493 -153.663235725 -5.52653 -1.06722 -3.14178 -5.52145 -0.865243 -3.20324 -5.46015 0.143062 -3.31484 -5.47527 -0.381959 -3.29589 -5.3304 2.07978 7.75556 -5.15643 -1.97627 8.25335 -0.0 0.0 -0.0 7.09408 4.16601 13.7346 3.73766 -29.4583 61.6764 2.14088 -46.6767 0.923794 -61.9121 -5.52147 5.15672 -0.576551 4.00222 -2.12419 -0.0 0.0 -0.0 3.77422 14.0573 -6.31557 -8.77543 20.7003 -58.2437 0.857832 23.0226 -0.174707 39.2946 0.313083 4.91282 0.83396 -3.44951 -6.97423 0.0 0.0 0.0 0.834065 -22.9437 -4.93766 -31.5025 -0.0164102 4.77408 20.592 24.3659 -2.93611 -5.94931 0.0 0.0 -0.0 0.0 -0.0 -8.27726 12.0472 -12.7304 -5.89375 -0.197405 -0.882578 35.2207 -25.9553 4.71351 -30.5957 0.0 0.0 0.0 0.0 0.0 
3503.07913051 734.915 -1478.33095654 152.249165844 72.7267742326 -147.244646728 -5.52653 -1.06722 -3.14178 -5.52145 -0.865243 -3.20324 -5.46015 0.143062 -3.31484 -5.47527 -0.381959 -3.29589 -5.3304 2.07978 7.75556 -5.15643 -1.97627 8.25335 -0.0 0.0 -0.0 7.09408 4.16601 13.7346 3.73766 -29.4583 61.6764 2.14088 -46.6767 0.923794 -61.9121 -5.52147 5.15672 -0.576551 4.00222 -2.12419 -0.0 0.0 -0.0 3.77422 14.0573 -6.31557 -8.77543 20.7003 -58.2437 0.857832 23.0226 -0.174707 39.2946 0.313083 4.91282 0.83396 -3.44951 -6.97423 0.0 0.0 0.0 0.834065 -22.9437 -4.93766 -31.5025 -0.0164102 4.77408 20.592 24.3659 -2.93611 -5.94931 0.0 0.0 -0.0 0.0 -0.0 -8.27726 12.0472 -12.7304 -5.89375 -0.197405 -0.882578 35.2207 -25.9553 4.71351 -30.5957 0.0 0.0 0.0 0.0 0.0 
3503.66865435 734.915 -1484.56532595 142.183286532 76.9681382838 -136.825270286 -5.52653 -1.06722 -3.14178 -5.52145 -0.865243 -3.20324 -5.46015 0.143062 -3.31484 -5.47527 -0.381959 -3.29589 -5.3304 2.07978 7.75556 -5.15643 -1.97627 8.25335 -0.0 0.0 -0.0 7.09408 4.16601 13.7346 3.73766 -29.4583 61.6764 2.14088 -46.6767 0.923794 -61.9121 -5.52147 5.15672 -0.576551 4.00222 -2.12419 -0.0 0.0 -0.0 3.77422 14.0573 -6.31557 -8.77543 20.7003 -58.2437 0.857832 23.0226 -0.174707 39.2946 0.313083 4.91282 0.83396 -3.44951 -6.97423 0.0 0.0 0.0 0.834065 -22.9437 -4.93766 -31.5025 -0.0164102 4.77408 20.592 24.3659 -2.93611 -5.94931 0.0 0.0 -0.0 0.0 -0.0 -8.27726 12.0472 -12.7304 -5.89375 -0.197405 -0.882578 35.2207 -25.9553 4.71351 -30.5957 0.0 0.0 0.0 0.0 0.0 
3499.50485151 737.49 -1492.14068439 107.553338269 81.585376161 -102.26187616 -5.47763 -0.698475 -2.87277 -5.47318 -0.514337 -2.91135 -5.43712 0.388604 -2.93077 -5.44909 -0.0789243 -2.95535 -4.49989 1.59008 8.25517 -4.29598 -3.36444 8.73066 -0.0 0.0 -0.0 7.38334 4.90855 14.2687 3.87597 -22.8175 62.1853 2.36461 -49.505 1.09035 -61.8447 -5.51301 5.15489 -0.504538 2.64226 -2.23342 -0.0 0.0 -0.0 3.96089 13.9074 -6.72276 -7.75627 20.9165 -58.0106 0.808936 21.837 -0.15605 38.5864 0.277786 4.82941 0.631698 -4.86473 -6.198 0.0 0.0 0.0 4.83467 -21.4158 -3.87955 -38.054 -0.347626 5.72391 14.7563 24.8237 -2.15772 -6.89853 0.0 0.0 -0.0 0.0 -0.0 -10.508 10.5685 -13.1528 -1.91938 -0.0742573 -0.285185 34.0208 -27.4444 4.62988 -29.9712 0.0 0.0 0.0 0.0 0.0 
3500.64673477 737.49 -1496.47664898 84.4378694591 81.9416416823 -78.9121812916 -5.47763 -0.698475 -2.87277 -5.47318 -0.514337 -2.91135 -5.43712 0.388604 -2.93077 -5.44909 -0.0789243 -2.95535 -4.49989 1.59008 8.25517 -4.29598 -3.36444 8.73066 -0.0 0.0 -0.0 7.38334 4.90855 14.2687 3.87597 -22.8175 62.1853 2.36461 -49.505 1.09035 -61.8447 -5.51301 5.15489 -0.504538 2.64226 -2.23342 -0.0 0.0 -0.0 3.96089 13.9074 -6.72276 -7.75627 20.9165 -58.0106 0.808936 21.837 -0.15605 38.5864 0.277786 4.82941 0.631698 -4.86473 -6.198 0.0 0.0 0.0 4.83467 -21.4158 -3.87955 -38.054 -0.347626 5.72391 14.7563 24.8237 -2.15772 -6.89853 0.0 0.0 -0.0 0.0 -0.0 -10.508 10.5685 -13.1528 -1.91938 -0.0742573 -0.285185 34.0208 -27.4444 4.62988 -29.9712 0.0 0.0 0.0 0.0 0.0 
